<svg xmlns="http://www.w3.org/2000/svg" viewBox="0 0 620 88" fill="none" aria-hidden="true">
  <defs>
    <marker id="pf-arrow" markerWidth="7" markerHeight="7" refX="6" refY="3" orient="auto">
      <path d="M0,0 L0,6 L6,3 z" fill="#00d4ff"/>
    </marker>
  </defs>
  <rect width="620" height="88" rx="10" fill="rgba(0,0,0,0.35)" stroke="rgba(0,255,136,0.2)"/>
  <g transform="translate(14,20)">
    <rect x="0" y="8" width="88" height="36" rx="6" fill="rgba(0,255,136,0.08)" stroke="#00ff88" stroke-width="1"/>
    <text x="44" y="30" text-anchor="middle" fill="#c8c8c8" font-family="Inter, system-ui, sans-serif" font-size="11">Raw text</text>
    <path d="M92 26 H104" stroke="#00d4ff" stroke-width="1.2" marker-end="url(#pf-arrow)"/>
    <rect x="108" y="8" width="100" height="36" rx="6" fill="rgba(0,255,136,0.08)" stroke="#00ff88" stroke-width="1"/>
    <text x="158" y="26" text-anchor="middle" fill="#c8c8c8" font-family="Inter, system-ui, sans-serif" font-size="10">Tokenize</text>
    <text x="158" y="38" text-anchor="middle" fill="#888" font-family="Inter, system-ui, sans-serif" font-size="9">pad to N</text>
    <path d="M212 26 H224" stroke="#00d4ff" stroke-width="1.2" marker-end="url(#pf-arrow)"/>
    <rect x="228" y="8" width="92" height="36" rx="6" fill="rgba(0,255,136,0.08)" stroke="#00ff88" stroke-width="1"/>
    <text x="274" y="30" text-anchor="middle" fill="#c8c8c8" font-family="Inter, system-ui, sans-serif" font-size="11">Embedding</text>
    <path d="M324 26 H336" stroke="#00d4ff" stroke-width="1.2" marker-end="url(#pf-arrow)"/>
    <rect x="340" y="8" width="108" height="36" rx="6" fill="rgba(0,255,136,0.08)" stroke="#00ff88" stroke-width="1"/>
    <text x="394" y="26" text-anchor="middle" fill="#c8c8c8" font-family="Inter, system-ui, sans-serif" font-size="10">Conv1D</text>
    <text x="394" y="38" text-anchor="middle" fill="#888" font-family="Inter, system-ui, sans-serif" font-size="9">+ max pool</text>
    <path d="M452 26 H464" stroke="#00d4ff" stroke-width="1.2" marker-end="url(#pf-arrow)"/>
    <rect x="468" y="8" width="124" height="36" rx="6" fill="rgba(0,255,136,0.12)" stroke="#00d4ff" stroke-width="1"/>
    <text x="530" y="30" text-anchor="middle" fill="#c8c8c8" font-family="Inter, system-ui, sans-serif" font-size="11">Dense ? ? ? P(spam)</text>
  </g>
</svg>
